<svg width="57" height="26" viewBox="0 0 57 26" fill="none" xmlns="http://www.w3.org/2000/svg">
<g filter="url(#filter0_i_99_825)">
<rect x="0.0834961" width="56.3333" height="26" rx="4" fill="white"/>
</g>
<path d="M37.9047 7.60515L37.0976 9.40729H38.7161L37.9047 7.60515ZM28.5923 8.7219C28.7444 8.64876 28.834 8.48968 28.834 8.29213C28.834 8.09854 28.7399 7.95834 28.5878 7.89245C28.4492 7.81942 28.2361 7.81098 28.0317 7.81098H26.5879V8.81509H28.0123C28.2405 8.81515 28.4311 8.81206 28.5923 8.7219ZM10.0921 7.60515L9.2942 9.40729H10.8948L10.0921 7.60515ZM47.24 19.1501H44.9758V18.1805H47.2309C47.4545 18.1805 47.611 18.1535 47.7053 18.0685C47.7944 17.9928 47.8448 17.8857 47.8439 17.7737C47.8439 17.6419 47.7871 17.5373 47.7006 17.4747C47.6157 17.4057 47.4917 17.3743 47.2875 17.3743C46.1866 17.3398 44.8131 17.4056 44.8131 15.9748C44.8131 15.319 45.265 14.6287 46.4954 14.6287H48.831V13.729H46.661C46.0062 13.729 45.5304 13.8736 45.1936 14.0984V13.729H41.984C41.4708 13.729 40.8684 13.8462 40.5835 14.0984V13.729H34.8516V14.0984C34.3956 13.7951 33.6258 13.729 33.2707 13.729H29.49V14.0984C29.1292 13.7763 28.3266 13.729 27.8376 13.729H23.6064L22.6383 14.6947L21.7315 13.729H15.4109V20.0387H21.6122L22.6098 19.0576L23.5496 20.0387L27.3721 20.0418V18.5575H27.748C28.2551 18.5651 28.8533 18.5461 29.3812 18.3358V20.0385H32.5341V18.3939H32.6861C32.8801 18.3939 32.8994 18.4014 32.8994 18.5802V20.0382H42.4775C43.0856 20.0382 43.7213 19.8949 44.0732 19.6343V20.0382H47.1114C47.7436 20.0382 48.3611 19.9565 48.8308 19.7474V18.572C48.5461 18.9558 47.9909 19.1504 47.2399 19.1504L47.24 19.1501ZM27.7982 17.6603H26.3352V19.1769H24.0562L22.6124 17.6802L21.1121 19.1769H16.4677V14.6553H21.1835L22.626 16.1375L24.1174 14.6553H27.864C28.7944 14.6553 29.8399 14.8928 29.8399 16.145C29.8399 17.401 28.8231 17.6603 27.7982 17.6603ZM34.8331 17.4553C34.9987 17.676 35.0227 17.882 35.0275 18.2806V19.177H33.8502V18.6113C33.8502 18.3393 33.8787 17.9365 33.6607 17.7262C33.4896 17.5643 33.2283 17.5257 32.8004 17.5257H31.5474V19.177H30.3693V14.6554H33.0762C33.67 14.6554 34.1022 14.6797 34.487 14.8687C34.857 15.0748 35.0899 15.357 35.0899 15.8728C35.0898 16.5945 34.5675 16.9626 34.2589 17.0758C34.5197 17.1645 34.733 17.3236 34.8331 17.4553ZM39.6765 15.5905H36.9308V16.4125H39.6094V17.3351H36.9308V18.2347L39.6765 18.2387V19.1769H35.7632V14.6553H39.6765V15.5905ZM42.6894 19.1769H40.4058V18.2073H42.6803C42.9028 18.2073 43.0604 18.1802 43.1593 18.0953C43.2399 18.0254 43.2978 17.9237 43.2978 17.8006C43.2978 17.6687 43.235 17.5641 43.1547 17.5013C43.065 17.4324 42.9412 17.4012 42.7372 17.4012C41.6406 17.3665 40.2674 17.4323 40.2674 16.0016C40.2674 15.3457 40.7146 14.6554 41.9438 14.6554H44.2945V15.6176H42.1435C41.9303 15.6176 41.7917 15.6251 41.6739 15.6995C41.5453 15.7727 41.4977 15.8813 41.4977 16.0247C41.4977 16.1952 41.6068 16.3113 41.7542 16.3615C41.8779 16.4011 42.0107 16.4127 42.2105 16.4127L42.8417 16.4286C43.478 16.4427 43.9151 16.5443 44.1807 16.7921C44.4088 17.0098 44.5314 17.2848 44.5314 17.7501C44.5313 18.7228 43.8719 19.1769 42.6894 19.1769ZM33.5957 15.6634C33.4541 15.5858 33.245 15.5817 33.0363 15.5817H31.5925V16.5972H33.017C33.2451 16.5972 33.439 16.5897 33.5957 16.504C33.7477 16.4194 33.8386 16.2634 33.8386 16.07C33.8386 15.8766 33.7477 15.7366 33.5957 15.6634ZM46.6962 15.5816C46.4829 15.5816 46.341 15.5891 46.2217 15.6633C46.098 15.7366 46.0505 15.8452 46.0505 15.9887C46.0505 16.1591 46.1549 16.2752 46.3068 16.3255C46.4306 16.3651 46.5633 16.3767 46.7586 16.3767L47.3942 16.3923C48.0353 16.407 48.4636 16.5086 48.7246 16.7564C48.7721 16.7908 48.8007 16.8295 48.8333 16.8683V15.5817H46.6963L46.6962 15.5816ZM27.8388 15.5816H26.31V16.7332H27.8252C28.2756 16.7332 28.5558 16.5272 28.556 16.1361C28.5558 15.7407 28.2621 15.5816 27.8388 15.5816ZM17.6355 15.5816V16.4037H20.2095V17.3263H17.6355V18.2259H20.5182L21.8576 16.8994L20.5751 15.5816H17.6355ZM25.163 18.7436V15.1186L23.3628 16.9019L25.163 18.7436ZM17.7339 11.484V12.2631H27.5297L27.5252 10.6149H27.7147C27.8475 10.6191 27.8861 10.6304 27.8861 10.8324V12.2631H32.9526V11.8794C33.3612 12.0812 33.9968 12.2631 34.8331 12.2631H36.9646L37.4208 11.2591H38.4321L38.8782 12.2631H42.9855V11.3094L43.6074 12.2631H46.8989V5.9585H43.6416V6.70308L43.1855 5.9585H39.843V6.70308L39.4242 5.9585H34.9092C34.1533 5.9585 33.4892 6.0557 32.9525 6.32665V5.9585H29.8368V6.32665C29.4952 6.04737 29.0299 5.9585 28.5126 5.9585H17.1298L16.3661 7.58694L15.5817 5.9585H11.9965V6.70308L11.6025 5.9585H8.54493L7.12505 8.95617V11.354L9.22463 6.83341H10.9667L12.9608 11.1134V6.83341H14.8745L16.4089 9.90006L17.8186 6.83341H19.7708V11.354H18.5689L18.5646 7.81355L16.8643 11.354H15.8349L14.1303 7.81042V11.354H11.7454L11.2949 10.3457H8.85358L8.39842 11.354H7.125V12.2634H9.12843L9.58012 11.2593H10.5915L11.042 12.2634H14.9837V11.4957L15.3355 12.2666H17.3817L17.7336 11.4841L17.7339 11.484ZM33.1701 7.36033C33.5489 6.99954 34.1426 6.83315 34.9506 6.83315H36.0857V7.80178H34.9744C34.5467 7.80178 34.3049 7.86041 34.0723 8.06964C33.8723 8.25994 33.7352 8.61975 33.7352 9.09355C33.7352 9.57789 33.8397 9.92706 34.0575 10.1552C34.238 10.334 34.5662 10.3883 34.8747 10.3883H35.4015L37.0539 6.83331H38.8107L40.7959 11.1091V6.83336H42.5811L44.6421 9.98168V6.83336H45.8432V11.3538H44.1816L41.9592 7.96091V11.3538H39.5713L39.115 10.3455H36.6793L36.2367 11.3538H34.8645C34.2947 11.3538 33.5731 11.2377 33.1645 10.8538C32.7523 10.47 32.5381 9.95005 32.5381 9.12806C32.5379 8.45754 32.6659 7.84467 33.1701 7.36033ZM30.7584 6.8332H31.9547V11.3538H30.7584V6.8332ZM25.3645 6.8332H28.0613C28.6603 6.8332 29.1021 6.84786 29.4812 7.04973C29.852 7.25166 30.0744 7.54647 30.0744 8.05061C30.0744 8.77143 29.5524 9.14375 29.2484 9.25561C29.5048 9.34562 29.7241 9.5046 29.8285 9.63626C29.9941 9.86112 30.0226 10.062 30.0226 10.4657V11.3537H28.84L28.8356 10.7837C28.8356 10.5116 28.8638 10.1204 28.6505 9.90304C28.4792 9.74411 28.218 9.7095 27.7958 9.7095H26.5372V11.3538H25.3647L25.3645 6.8332ZM20.6378 6.8332H24.5547V7.77457H21.8104V8.58941H24.4888V9.51606H21.8104V10.4189H24.5547V11.3537H20.6378V6.8332Z" fill="#2557D6"/>
<defs>
<filter id="filter0_i_99_825" x="0.0834961" y="0" width="56.3335" height="26" filterUnits="userSpaceOnUse" color-interpolation-filters="sRGB">
<feFlood flood-opacity="0" result="BackgroundImageFix"/>
<feBlend mode="normal" in="SourceGraphic" in2="BackgroundImageFix" result="shape"/>
<feColorMatrix in="SourceAlpha" type="matrix" values="0 0 0 0 0 0 0 0 0 0 0 0 0 0 0 0 0 0 127 0" result="hardAlpha"/>
<feOffset/>
<feGaussianBlur stdDeviation="3"/>
<feComposite in2="hardAlpha" operator="arithmetic" k2="-1" k3="1"/>
<feColorMatrix type="matrix" values="0 0 0 0 0 0 0 0 0 0 0 0 0 0 0 0 0 0 0.15 0"/>
<feBlend mode="normal" in2="shape" result="effect1_innerShadow_99_825"/>
</filter>
</defs>
</svg>
