<svg width="12" height="7" viewBox="0 0 12 7" fill="none" xmlns="http://www.w3.org/2000/svg">
<path d="M2.01769 0.416189C1.69526 0.0749927 1.15729 0.05978 0.816091 0.38221C0.474895 0.70464 0.459682 1.24262 0.782112 1.58381L2.01769 0.416189ZM11.4677 1.58381C11.7901 1.24262 11.7749 0.70464 11.4337 0.38221C11.0925 0.05978 10.5545 0.0749927 10.2321 0.416189L11.4677 1.58381ZM6.1249 6L5.50711 6.58381C5.66768 6.75372 5.89113 6.85 6.1249 6.85C6.35868 6.85 6.58213 6.75372 6.74269 6.58381L6.1249 6ZM0.782112 1.58381L5.50711 6.58381L6.74269 5.41619L2.01769 0.416189L0.782112 1.58381ZM6.74269 6.58381L11.4677 1.58381L10.2321 0.416189L5.50711 5.41619L6.74269 6.58381Z" fill="black"/>
</svg>
