<svg width="20" height="24" viewBox="0 0 20 24" fill="none" xmlns="http://www.w3.org/2000/svg">
<path d="M19.9998 4.80205C19.9998 4.45757 19.8636 4.12712 19.6218 3.88367C19.3799 3.63998 19.0516 3.50318 18.7093 3.50318H14.2483V1.62341C14.2483 1.19287 14.0782 0.779763 13.7758 0.475377C13.4734 0.17099 13.0632 0 12.6354 0H7.36434C6.9366 0 6.5264 0.17099 6.22398 0.475377C5.92157 0.779763 5.75147 1.19286 5.75147 1.62341V3.50342L1.29044 3.50319C0.9482 3.50319 0.619889 3.63998 0.378016 3.88367C0.136132 4.12714 0 4.45757 0 4.80205V6.815C0 7.15948 0.136132 7.4897 0.378016 7.73338C0.619901 7.97684 0.948189 8.11364 1.29044 8.11364H1.97764V20.7532C1.97764 21.6143 2.31763 22.4403 2.92243 23.049C3.52749 23.658 4.34787 24 5.20338 24H14.7971C15.6526 24 16.473 23.658 17.078 23.049C17.6828 22.4403 18.0228 21.6143 18.0228 20.7532L18.0226 8.11364H18.7096C19.0518 8.11364 19.3801 7.97684 19.622 7.73338C19.8639 7.48969 20 7.15949 20 6.815L19.9998 4.80205ZM7.04209 1.62344C7.04209 1.44406 7.18655 1.29866 7.36453 1.29866H12.6356C12.7211 1.29866 12.803 1.33286 12.8636 1.39378C12.9241 1.45471 12.9581 1.53737 12.9581 1.62343V3.50344L7.04228 3.50321L7.04209 1.62344ZM16.7195 20.7537C16.7195 21.2705 16.5157 21.7656 16.1527 22.1311C15.7896 22.4965 15.2975 22.7016 14.784 22.7016H5.20008C4.68683 22.7016 4.19452 22.4965 3.83156 22.1311C3.46862 21.7656 3.26454 21.2703 3.26454 20.7535L3.26431 8.1139H16.7318L16.7195 20.7537ZM18.7095 6.81482H1.29054V4.80187H18.7095V6.81482Z" fill="black"/>
<path d="M10.1087 19.7143C10.2528 19.7143 10.3911 19.6666 10.4929 19.5818C10.5949 19.4971 10.6522 19.3819 10.6522 19.262V11.5951C10.6522 11.3453 10.409 11.1429 10.1087 11.1429C9.80843 11.1429 9.56522 11.3453 9.56522 11.5951V19.262C9.56522 19.3819 9.62247 19.4971 9.72445 19.5818C9.82625 19.6666 9.96461 19.7143 10.1087 19.7143Z" fill="black"/>
<path d="M13.587 19.7143C13.7311 19.7143 13.8693 19.6666 13.9712 19.5818C14.0732 19.4971 14.1304 19.3819 14.1304 19.262V11.5951C14.1304 11.3453 13.8871 11.1429 13.5871 11.1429C13.2868 11.1429 13.0435 11.3453 13.0435 11.5951V19.262C13.0435 19.3819 13.1007 19.4971 13.2027 19.5818C13.3047 19.6666 13.4428 19.7143 13.587 19.7143Z" fill="black"/>
<path d="M6.63033 19.7143C6.77457 19.7143 6.91274 19.6666 7.01471 19.5818C7.11668 19.4971 7.17391 19.3819 7.17391 19.262V11.5951C7.17391 11.3453 6.93055 11.1429 6.63034 11.1429C6.33031 11.1429 6.08696 11.3453 6.08696 11.5951V19.262C6.08696 19.3819 6.1442 19.4971 6.24616 19.5818C6.34813 19.6666 6.48628 19.7143 6.63033 19.7143Z" fill="black"/>
</svg>
