<svg width="11" height="14" viewBox="0 0 11 14" fill="none" xmlns="http://www.w3.org/2000/svg">
<path d="M10.5669 1.82378C11.0219 1.51069 11.1369 0.888057 10.8238 0.433094C10.5107 -0.0218694 9.88806 -0.136878 9.4331 0.176215L10.5669 1.82378ZM1 7.19355L0.433096 6.36976C0.157619 6.55934 -0.00486682 6.87407 0.00011192 7.20844C0.00509066 7.54281 0.176874 7.85255 0.457874 8.03384L1 7.19355ZM9.45788 13.8403C9.92196 14.1397 10.5409 14.0062 10.8403 13.5421C11.1397 13.078 11.0062 12.4591 10.5421 12.1597L9.45788 13.8403ZM9.4331 0.176215L0.433096 6.36976L1.56691 8.01733L10.5669 1.82378L9.4331 0.176215ZM0.457874 8.03384L9.45788 13.8403L10.5421 12.1597L1.54213 6.35325L0.457874 8.03384Z" fill="black"/>
</svg>
