<svg width="40" height="40" viewBox="0 0 40 40" fill="none" xmlns="http://www.w3.org/2000/svg">
<path d="M15.1776 5.99081C13.8114 5.46538 12.5204 5.20267 11.3044 5.20267C10.1034 5.20267 9.16511 5.45788 8.48956 5.9683C7.814 6.47872 7.47623 7.1843 7.47623 8.08504C7.47623 9.18094 8.0467 10.0291 9.18763 10.6296C9.69805 10.8848 10.2535 11.125 10.854 11.3502C11.4695 11.5604 12.085 11.8006 12.7005 12.0708C13.316 12.341 13.879 12.6488 14.3894 12.9941C14.8998 13.3394 15.3127 13.8198 15.6279 14.4353C15.9432 15.0358 16.1008 15.8089 16.1008 16.7547C16.1008 17.6854 15.8381 18.4811 15.3127 19.1416C14.7872 19.8022 14.1492 20.2525 13.3986 20.4927C12.663 20.7179 11.7998 20.8305 10.809 20.8305C8.96245 20.8305 7.38615 20.3726 6.08008 19.4569L6.19267 19.2767C6.68808 19.6671 7.3261 19.9898 8.10674 20.245C8.9024 20.4852 9.71307 20.6053 10.5387 20.6053C11.7547 20.6053 12.7906 20.3276 13.6463 19.7721C14.517 19.2017 14.9524 18.3685 14.9524 17.2726C14.9524 16.0716 14.3819 15.1333 13.241 14.4578C12.7305 14.1575 12.1676 13.8798 11.5521 13.6246C10.9516 13.3694 10.3436 13.1067 9.72808 12.8364C9.11257 12.5512 8.54961 12.236 8.03919 11.8907C6.89825 11.14 6.32778 10.0742 6.32778 8.69304C6.32778 7.59714 6.69558 6.71141 7.43119 6.03585C8.16679 5.34528 9.2702 5 10.7414 5C12.2276 5 13.7364 5.25521 15.2676 5.76563L15.1776 5.99081Z" fill="white" stroke="white" stroke-width="0.25"/>
<path d="M35.0874 19.9531V19.8281H34.9624H26H25.875V19.9531V35.7161V35.8411H26H27.869H27.994V35.7161V27.7344H34.4444H34.5694V27.6094V27.3842V27.2592H34.4444H27.994V20.3033H34.9624H35.0874V20.1783V19.9531Z" fill="white" stroke="white" stroke-width="0.25"/>
<path d="M7.34916 32.3507C7.22827 32.4716 7.22827 32.6676 7.34916 32.7885C7.47005 32.9094 7.66606 32.9094 7.78695 32.7885L32.7886 7.78687C32.9095 7.66598 32.9095 7.46997 32.7886 7.34908C32.6677 7.22818 32.4717 7.22818 32.3508 7.34908L7.34916 32.3507Z" fill="white" stroke="white" stroke-width="0.15" stroke-linecap="round"/>
<path d="M1 0.925H0.925V1V39V39.075H1H39H39.075V39V1V0.925H39H1ZM1.54414 1.54414H38.4559V38.4559H1.54414V1.54414Z" fill="white" stroke="white" stroke-width="0.15"/>
</svg>
