<svg width="57" height="26" viewBox="0 0 57 26" fill="none" xmlns="http://www.w3.org/2000/svg">
<g filter="url(#filter0_i_99_828)">
<rect x="0.625" width="56.3333" height="26" rx="4" fill="white"/>
</g>
<path d="M14.3477 8.13545C13.8129 7.76778 13.115 7.5835 12.254 7.5835H8.92074C8.6568 7.5835 8.51098 7.7155 8.48328 7.97925L7.12925 16.4788C7.11518 16.5623 7.13606 16.6387 7.19172 16.7081C7.24705 16.7776 7.31665 16.8122 7.4 16.8122H8.98327C9.26097 16.8122 9.4136 16.6805 9.44162 16.4164L9.81655 14.125C9.83024 14.0139 9.87908 13.9236 9.96243 13.8541C10.0457 13.7847 10.1499 13.7393 10.2749 13.7185C10.3999 13.6979 10.5178 13.6874 10.6291 13.6874C10.7401 13.6874 10.8719 13.6945 11.0249 13.7083C11.1776 13.7221 11.2749 13.7289 11.3166 13.7289C12.5109 13.7289 13.4484 13.3924 14.129 12.7186C14.8093 12.0451 15.1499 11.1113 15.1499 9.91655C15.1499 9.09716 14.8822 8.5035 14.3477 8.13526V8.13545ZM12.6291 10.6876C12.5594 11.1738 12.3791 11.4931 12.0875 11.6459C11.7958 11.7989 11.3791 11.8751 10.8375 11.8751L10.15 11.8958L10.5043 9.66668C10.5319 9.51405 10.6221 9.43764 10.775 9.43764H11.171C11.7262 9.43764 12.1292 9.51768 12.3792 9.67713C12.6291 9.83696 12.7125 10.1739 12.6291 10.6876Z" fill="#003087"/>
<path d="M49.5233 7.5835H47.9819C47.8287 7.5835 47.7385 7.65991 47.711 7.8128L46.3568 16.4792L46.3359 16.5209C46.3359 16.5906 46.3637 16.6563 46.4194 16.7188C46.4746 16.7812 46.5444 16.8125 46.6276 16.8125H48.0028C48.2662 16.8125 48.4121 16.6808 48.4403 16.4167L49.7944 7.89615V7.87545C49.7943 7.68092 49.7037 7.58375 49.5233 7.58375V7.5835Z" fill="#009CDE"/>
<path d="M30.8992 10.9376C30.8992 10.8684 30.8713 10.8023 30.8161 10.7399C30.7604 10.6775 30.6979 10.646 30.6286 10.646H29.0245C28.8714 10.646 28.7464 10.7158 28.6494 10.8543L26.4412 14.1043L25.5245 10.9794C25.4547 10.7574 25.3022 10.646 25.0662 10.646H23.5035C23.4339 10.646 23.3715 10.6773 23.3163 10.7399C23.2605 10.8023 23.2329 10.8685 23.2329 10.9376C23.2329 10.9656 23.3684 11.3752 23.6391 12.1668C23.9099 12.9587 24.2015 13.8128 24.514 14.7295C24.8266 15.646 24.9896 16.1324 25.0036 16.1875C23.8647 17.7432 23.2954 18.5765 23.2954 18.6874C23.2954 18.8681 23.3855 18.9583 23.5663 18.9583H25.1704C25.3231 18.9583 25.448 18.889 25.5454 18.7501L30.8578 11.0834C30.8854 11.0559 30.8992 11.0075 30.8992 10.9376V10.9376Z" fill="#003087"/>
<path d="M45.8364 10.6458H44.2531C44.0584 10.6458 43.9408 10.8751 43.8991 11.3335C43.5376 10.7781 42.8783 10.5 41.9198 10.5C40.9199 10.5 40.0691 10.8751 39.3679 11.625C38.6665 12.375 38.3159 13.2572 38.3159 14.271C38.3159 15.0905 38.5555 15.7432 39.0345 16.2292C39.5137 16.7156 40.1559 16.9583 40.9617 16.9583C41.3644 16.9583 41.7741 16.8748 42.1907 16.7083C42.6074 16.5417 42.9335 16.3196 43.17 16.0417C43.17 16.0556 43.1558 16.1179 43.1284 16.229C43.1003 16.3403 43.0866 16.4239 43.0866 16.479C43.0866 16.7015 43.1766 16.8123 43.3575 16.8123H44.795C45.0586 16.8123 45.2115 16.6806 45.2531 16.4165L46.1073 10.9791C46.121 10.8957 46.1003 10.8195 46.0448 10.7499C45.989 10.6807 45.9197 10.6458 45.8364 10.6458ZM43.1178 14.7501C42.7636 15.0973 42.3365 15.2708 41.8366 15.2708C41.4336 15.2708 41.1075 15.1599 40.8574 14.9375C40.6073 14.7158 40.4823 14.4102 40.4823 14.0209C40.4823 13.5074 40.656 13.073 41.0033 12.7189C41.35 12.3647 41.781 12.1877 42.2949 12.1877C42.6834 12.1877 43.0064 12.3023 43.2636 12.5313C43.5202 12.7605 43.6491 13.0765 43.6491 13.4794C43.649 13.9793 43.4719 14.403 43.1178 14.7501Z" fill="#009CDE"/>
<path d="M22.1701 10.6458H20.5868C20.3921 10.6458 20.2743 10.8751 20.2326 11.3335C19.8576 10.7781 19.1978 10.5 18.2534 10.5C17.2535 10.5 16.4027 10.8751 15.7014 11.625C15 12.375 14.6494 13.2572 14.6494 14.271C14.6494 15.0905 14.889 15.7432 15.3682 16.2292C15.8474 16.7156 16.4895 16.9583 17.2952 16.9583C17.6839 16.9583 18.0869 16.8748 18.5034 16.7083C18.9201 16.5417 19.2534 16.3196 19.5034 16.0417C19.4477 16.2082 19.4201 16.3541 19.4201 16.479C19.4201 16.7015 19.5103 16.8123 19.6909 16.8123H21.1283C21.392 16.8123 21.545 16.6806 21.5867 16.4165L22.4408 10.9791C22.4544 10.8957 22.4337 10.8195 22.3783 10.7499C22.3227 10.6807 22.2534 10.6458 22.1701 10.6458ZM19.4515 14.7604C19.0972 15.1011 18.663 15.2708 18.1495 15.2708C17.7465 15.2708 17.4235 15.1599 17.1807 14.9375C16.9375 14.7158 16.8161 14.4102 16.8161 14.0209C16.8161 13.5074 16.9896 13.073 17.3369 12.7189C17.6839 12.3647 18.1145 12.1876 18.6286 12.1876C19.0172 12.1876 19.3402 12.3023 19.5973 12.5313C19.8541 12.7605 19.9827 13.0765 19.9827 13.4794C19.9826 13.9933 19.8056 14.4205 19.4515 14.7604Z" fill="#003087"/>
<path d="M38.0138 8.13545C37.479 7.76778 36.7813 7.5835 35.9202 7.5835H32.6077C32.3299 7.5835 32.177 7.7155 32.1494 7.97925L30.7953 16.4788C30.7812 16.5623 30.8021 16.6387 30.8578 16.7081C30.9129 16.7776 30.9827 16.8122 31.066 16.8122H32.7742C32.9409 16.8122 33.0519 16.722 33.1076 16.5414L33.4826 14.125C33.4964 14.0139 33.545 13.9236 33.6285 13.8541C33.7119 13.7847 33.8159 13.7393 33.941 13.7185C34.0659 13.6979 34.1838 13.6874 34.2951 13.6874C34.4062 13.6874 34.538 13.6945 34.6909 13.7083C34.8436 13.7221 34.9411 13.7289 34.9825 13.7289C36.1771 13.7289 37.1144 13.3924 37.795 12.7186C38.4756 12.0451 38.8158 11.1113 38.8158 9.91655C38.8159 9.09716 38.5484 8.50344 38.0138 8.13526V8.13545ZM35.8785 11.5625C35.5729 11.7708 35.1145 11.8749 34.5036 11.8749L33.8369 11.8958L34.191 9.66656C34.2185 9.51399 34.3088 9.43745 34.4618 9.43745H34.8366C35.1422 9.43745 35.3852 9.45139 35.5661 9.47909C35.7463 9.50698 35.9202 9.59365 36.0868 9.7394C36.2536 9.88529 36.3368 10.0972 36.3368 10.3748C36.3368 10.9584 36.1839 11.354 35.8785 11.5625Z" fill="#009CDE"/>
<defs>
<filter id="filter0_i_99_828" x="0.625" y="0" width="56.3335" height="26" filterUnits="userSpaceOnUse" color-interpolation-filters="sRGB">
<feFlood flood-opacity="0" result="BackgroundImageFix"/>
<feBlend mode="normal" in="SourceGraphic" in2="BackgroundImageFix" result="shape"/>
<feColorMatrix in="SourceAlpha" type="matrix" values="0 0 0 0 0 0 0 0 0 0 0 0 0 0 0 0 0 0 127 0" result="hardAlpha"/>
<feOffset/>
<feGaussianBlur stdDeviation="3"/>
<feComposite in2="hardAlpha" operator="arithmetic" k2="-1" k3="1"/>
<feColorMatrix type="matrix" values="0 0 0 0 0 0 0 0 0 0 0 0 0 0 0 0 0 0 0.15 0"/>
<feBlend mode="normal" in2="shape" result="effect1_innerShadow_99_828"/>
</filter>
</defs>
</svg>
