<svg width="11" height="14" viewBox="0 0 11 14" fill="none" xmlns="http://www.w3.org/2000/svg">
<path d="M0.433095 12.1762C-0.0218676 12.4893 -0.136876 13.1119 0.176217 13.5669C0.489309 14.0219 1.11194 14.1369 1.5669 13.8238L0.433095 12.1762ZM10 6.80645L10.5669 7.63024C10.8424 7.44066 11.0049 7.12593 10.9999 6.79156C10.9949 6.4572 10.8231 6.14745 10.5421 5.96616L10 6.80645ZM1.54213 0.159703C1.07804 -0.139705 0.459113 -0.00621036 0.159704 0.457873C-0.139704 0.921956 -0.00620888 1.54089 0.457874 1.8403L1.54213 0.159703ZM1.5669 13.8238L10.5669 7.63024L9.4331 5.98267L0.433095 12.1762L1.5669 13.8238ZM10.5421 5.96616L1.54213 0.159703L0.457874 1.8403L9.45787 7.64675L10.5421 5.96616Z" fill="black"/>
</svg>
