<svg width="17" height="10" viewBox="0 0 17 10" fill="none" xmlns="http://www.w3.org/2000/svg">
<path d="M1.62011 0.41865C1.29904 0.0761746 0.761125 0.0588226 0.41865 0.379893C0.0761746 0.700964 0.0588226 1.23887 0.379893 1.58135L1.62011 0.41865ZM16.6201 1.58135C16.9412 1.23887 16.9238 0.700964 16.5813 0.379893C16.2389 0.0588226 15.701 0.0761746 15.3799 0.41865L16.6201 1.58135ZM8.5 9L7.87989 9.58135C8.04058 9.75275 8.26505 9.85 8.5 9.85C8.73495 9.85 8.95942 9.75275 9.12011 9.58135L8.5 9ZM0.379893 1.58135L7.87989 9.58135L9.12011 8.41865L1.62011 0.41865L0.379893 1.58135ZM9.12011 9.58135L16.6201 1.58135L15.3799 0.41865L7.87989 8.41865L9.12011 9.58135Z" fill="white"/>
</svg>
