<svg width="57" height="26" viewBox="0 0 57 26" fill="none" xmlns="http://www.w3.org/2000/svg">
<g filter="url(#filter0_i_99_810)">
<rect width="56.3333" height="26" rx="4" fill="white"/>
</g>
<path d="M46.7736 6.6875H44.0957C43.2861 6.6875 42.6634 6.9366 42.2897 7.74619L37.1831 19.3918H40.7951C40.7951 19.3918 41.4179 17.8349 41.5424 17.4612C41.9161 17.4612 45.4658 17.4612 45.964 17.4612C46.0885 17.8971 46.3999 19.3295 46.3999 19.3295H49.6383L46.7736 6.6875ZM42.5388 14.8456C42.8502 14.0983 43.9089 11.2959 43.9089 11.2959C43.9089 11.3582 44.2203 10.5486 44.3448 10.1127L44.5939 11.2336C44.5939 11.2336 45.2789 14.2851 45.4035 14.9079H42.5388V14.8456Z" fill="#3362AB"/>
<path d="M37.4321 15.2191C37.4321 17.8347 35.0656 19.5784 31.3914 19.5784C29.8345 19.5784 28.3399 19.267 27.5303 18.8934L28.0285 16.0287L28.4644 16.2155C29.5854 16.7137 30.3327 16.9005 31.7027 16.9005C32.6992 16.9005 33.7578 16.5269 33.7578 15.655C33.7578 15.0945 33.3219 14.7209 31.9518 14.0981C30.6441 13.4754 28.9003 12.479 28.9003 10.673C28.9003 8.18193 31.3291 6.50049 34.7543 6.50049C36.062 6.50049 37.183 6.74959 37.868 7.06097L37.3698 9.8011L37.1207 9.552C36.498 9.3029 35.6884 9.05379 34.5052 9.05379C33.1974 9.11607 32.5746 9.67655 32.5746 10.1748C32.5746 10.7352 33.3219 11.1712 34.5052 11.7316C36.498 12.6658 37.4321 13.7245 37.4321 15.2191Z" fill="#3362AB"/>
<path d="M7.0415 6.81209L7.10378 6.56299H12.4595C13.2068 6.56299 13.7673 6.81209 13.9541 7.62168L15.1373 13.2265C13.9541 10.2373 11.214 7.8085 7.0415 6.81209Z" fill="#F9B50B"/>
<path d="M22.6728 6.68728L17.2549 19.3293H13.5806L10.4668 8.74238C12.7087 10.1747 14.577 12.4166 15.262 13.9735L15.6357 15.2813L18.9986 6.625H22.6728V6.68728Z" fill="#3362AB"/>
<path d="M24.1049 6.625H27.5301L25.3505 19.3293H21.9253L24.1049 6.625Z" fill="#3362AB"/>
<defs>
<filter id="filter0_i_99_810" x="0" y="0" width="56.3335" height="26" filterUnits="userSpaceOnUse" color-interpolation-filters="sRGB">
<feFlood flood-opacity="0" result="BackgroundImageFix"/>
<feBlend mode="normal" in="SourceGraphic" in2="BackgroundImageFix" result="shape"/>
<feColorMatrix in="SourceAlpha" type="matrix" values="0 0 0 0 0 0 0 0 0 0 0 0 0 0 0 0 0 0 127 0" result="hardAlpha"/>
<feOffset/>
<feGaussianBlur stdDeviation="3"/>
<feComposite in2="hardAlpha" operator="arithmetic" k2="-1" k3="1"/>
<feColorMatrix type="matrix" values="0 0 0 0 0 0 0 0 0 0 0 0 0 0 0 0 0 0 0.15 0"/>
<feBlend mode="normal" in2="shape" result="effect1_innerShadow_99_810"/>
</filter>
</defs>
</svg>
